<svg width="30" height="31" viewBox="0 0 30 31" fill="none" xmlns="http://www.w3.org/2000/svg">
<g clip-path="url(#clip0_8_16)">
<path d="M14.0461 3.03341C14.3396 2.10007 15.6604 2.10006 15.9539 3.0334L18.1479 10.0098C18.2789 10.4264 18.6651 10.7098 19.1018 10.7098L26.2687 10.7101C27.2294 10.7102 27.6373 11.933 26.869 12.5098L21.0153 16.9049C20.6763 17.1595 20.5346 17.6001 20.6617 18.0045L22.8841 25.0731C23.1755 26.0002 22.1069 26.7562 21.3297 26.1727L15.6004 21.8717C15.2447 21.6047 14.7553 21.6047 14.3996 21.8717L8.67026 26.1727C7.89306 26.7562 6.82446 26.0002 7.11594 25.0731L9.33827 18.0045C9.46542 17.6001 9.32375 17.1595 8.98473 16.9049L3.13095 12.5098C2.36267 11.933 2.77061 10.7102 3.73133 10.7101L10.8982 10.7098C11.3349 10.7098 11.7211 10.4264 11.8521 10.0098L14.0461 3.03341Z" stroke="white" stroke-width="2"/>
</g>
<defs>
<clipPath id="clip0_8_16">
<rect width="30" height="31" fill="white"/>
</clipPath>
</defs>
</svg>
