<svg width="33" height="33" viewBox="0 0 33 33" fill="none" xmlns="http://www.w3.org/2000/svg">
<path d="M14.9307 6.4796C15.4246 4.95944 17.5753 4.95944 18.0692 6.4796L19.834 11.9111C20.0549 12.5909 20.6884 13.0512 21.4032 13.0512H27.1142C28.7126 13.0512 29.3772 15.0966 28.0841 16.0361L23.4638 19.3929C22.8855 19.8131 22.6435 20.5578 22.8644 21.2376L24.6292 26.6691C25.1231 28.1893 23.3832 29.4534 22.0901 28.5139L17.4698 25.157C16.8915 24.7369 16.1084 24.7369 15.5301 25.157L10.9098 28.5139C9.61671 29.4534 7.87682 28.1893 8.37075 26.6691L10.1355 21.2376C10.3564 20.5578 10.1144 19.8131 9.53614 19.3929L4.91586 16.0361C3.62273 15.0966 4.28731 13.0512 5.88571 13.0512H11.5967C12.3115 13.0512 12.945 12.5909 13.1659 11.9111L14.9307 6.4796Z" fill="white"/>
</svg>
